Coordinates
version=1
nRows=8
nColumns=63
inDegrees=yes

Units are S.I. units (second, meters, Newtons, ...)
If the header above contains a line with 'inDegrees', this indicates whether rotational values are in degrees (yes) or radians (no).

endheader
time	pelvis_tilt	pelvis_list	pelvis_rotation	pelvis_tx	pelvis_ty	pelvis_tz	hip_flexion_r	hip_adduction_r	hip_rotation_r	knee_angle_r	knee_angle_r_beta	ankle_angle_r	subtalar_angle_r	mtp_angle_r	hip_flexion_l	hip_adduction_l	hip_rotation_l	knee_angle_l	knee_angle_l_beta	ankle_angle_l	subtalar_angle_l	mtp_angle_l	L5_S1_Flex_Ext	L5_S1_Lat_Bending	L5_S1_axial_rotation	L4_L5_Flex_Ext	L4_L5_Lat_Bending	L4_L5_axial_rotation	L3_L4_Flex_Ext	L3_L4_Lat_Bending	L3_L4_axial_rotation	L2_L3_Flex_Ext	L2_L3_Lat_Bending	L2_L3_axial_rotation	L1_L2_Flex_Ext	L1_L2_Lat_Bending	L1_L2_axial_rotation	L1_T12_Flex_Ext	L1_T12_Lat_Bending	L1_T12_axial_rotation	Abs_r3	Abs_r2	Abs_r1	Abs_t1	Abs_t2	neck_flexion	neck_bending	neck_rotation	arm_flex_r	arm_add_r	arm_rot_r	elbow_flex_r	pro_sup_r	wrist_flex_r	wrist_dev_r	arm_flex_l	arm_add_l	arm_rot_l	elbow_flex_l	pro_sup_l	wrist_flex_l	wrist_dev_l
0.000000	-2.489913	-4.137996	89.046638	0.218130	0.794671	0.622532	-2.666945	-1.986371	-3.144556	3.048788	0.053211	18.308723	3.775857	0.000000	0.240363	0.001561	1.150130	6.305044	0.110044	16.077197	2.832269	0.000000	-0.135389	-0.389470	-0.884274	-0.251430	-0.517995	-0.939542	-0.222430	-0.946958	-0.939542	-0.154736	-0.946958	-0.773740	-0.125722	-0.794208	-0.718473	-0.077361	-0.603289	-0.663206	-0.967067	-4.405765	-4.918069	0.000000	0.000000	27.120946	1.303690	-3.941918	16.458779	-0.437528	132.864259	3.227086	-1.752132	0.110539	-5.972936	12.525555	-10.067545	138.084693	6.211224	7.334933	-8.827789	-3.600408
0.017241	-2.805805	-3.421594	89.516358	0.217675	0.794491	0.620554	-3.702027	-2.198638	-4.678069	3.037404	0.053013	18.618347	5.187201	0.000000	-0.515587	0.291221	1.621006	6.732989	0.117513	15.241588	2.340187	0.000000	-0.202460	-0.424592	-0.876871	-0.375989	-0.564707	-0.931676	-0.332622	-1.032352	-0.931676	-0.231392	-1.032352	-0.767262	-0.188004	-0.865827	-0.712458	-0.115686	-0.657692	-0.657653	-1.446153	-4.803064	-4.876895	0.000000	0.000000	26.790044	1.261391	-3.980465	15.362913	-1.698970	119.399682	6.609112	1.211305	0.869989	-4.208513	11.810102	-9.756471	147.582213	4.122402	5.897927	-7.354912	-3.442442
0.034483	-3.107827	-2.932943	90.014164	0.217041	0.794319	0.619283	-4.403811	-2.454826	-6.191768	3.128643	0.054605	18.932721	6.501198	0.000000	-0.942946	0.595036	2.092278	7.185996	0.125419	14.546612	1.959824	0.000000	-0.249279	-0.456630	-0.897345	-0.462935	-0.607317	-0.953429	-0.409540	-1.110249	-0.953429	-0.284900	-1.110249	-0.785177	-0.231480	-0.931159	-0.729093	-0.142438	-0.707319	-0.673009	-1.780572	-5.165486	-4.990762	0.000000	0.000000	26.561446	1.231771	-3.958680	14.506383	-2.545293	110.629308	8.953096	3.229656	1.121622	-2.966162	11.303707	-9.574025	153.796990	2.752732	4.776309	-6.240415	-3.492741
0.051724	-3.393379	-2.649616	90.530014	0.216245	0.794160	0.618647	-4.804958	-2.746729	-7.675538	3.309954	0.057770	19.244825	7.721399	0.000000	-1.078371	0.908072	2.566457	7.652908	0.133568	13.980277	1.667603	0.000000	-0.277743	-0.485217	-0.941194	-0.515796	-0.645338	-1.000018	-0.456304	-1.179756	-1.000018	-0.317432	-1.179756	-0.823544	-0.257912	-0.989454	-0.764720	-0.158702	-0.751601	-0.705895	-1.983889	-5.488869	-5.234636	0.000000	0.000000	26.424117	1.210885	-3.876506	13.869536	-3.023302	105.986197	10.383532	4.429081	0.935657	-2.184708	10.994053	-9.492557	157.115487	2.019809	3.939101	-5.440610	-3.728617
0.068966	-3.659861	-2.549190	91.053870	0.215307	0.794016	0.618573	-4.938128	-3.066141	-9.119262	3.568787	0.062287	19.547637	8.851353	0.000000	-0.958518	1.225398	3.046055	8.122570	0.141766	13.530591	1.439944	0.000000	-0.289752	-0.509985	-1.003916	-0.538098	-0.678280	-1.066661	-0.476033	-1.239978	-1.066661	-0.331157	-1.239978	-0.878426	-0.269063	-1.039961	-0.815682	-0.165564	-0.789967	-0.752937	-2.069667	-5.769052	-5.583479	0.000000	0.000000	26.367023	1.194789	-3.733888	13.432715	-3.179799	104.903410	11.024911	4.935737	0.382317	-1.802978	10.868825	-9.484414	157.924163	1.841230	3.355325	-4.911809	-4.127377
0.086207	-3.904676	-2.609237	91.575688	0.214243	0.793891	0.618987	-4.835980	-3.404857	-10.512823	3.892593	0.067939	19.834135	9.894611	0.000000	-0.620045	1.542081	3.533581	8.583824	0.149816	13.185562	1.253269	0.000000	-0.287204	-0.530567	-1.081010	-0.533367	-0.705654	-1.148574	-0.471848	-1.290019	-1.148574	-0.328245	-1.290019	-0.945884	-0.266698	-1.081931	-0.878321	-0.164108	-0.821848	-0.810758	-2.051470	-6.001875	-6.012256	0.000000	0.000000	26.379128	1.179540	-3.530770	13.176266	-3.061589	106.814008	11.001725	4.875784	-0.468180	-1.759797	10.915705	-9.521945	156.609480	2.134591	2.994002	-4.610324	-4.666332
0.103448	-4.125223	-2.807333	92.085429	0.213073	0.793788	0.619818	-4.531176	-3.754670	-11.846104	4.268820	0.074505	20.097297	10.854724	0.000000	-0.099606	1.853189	4.031546	9.025516	0.157525	12.933198	1.084000	0.000000	-0.271999	-0.546594	-1.167975	-0.505129	-0.726969	-1.240974	-0.446867	-1.328987	-1.240974	-0.310868	-1.328987	-1.021978	-0.252578	-1.114614	-0.948980	-0.155420	-0.846673	-0.875982	-1.942861	-6.183175	-6.495929	0.000000	0.000000	26.449398	1.161194	-3.267097	13.080534	-2.715475	111.151053	10.438467	4.375380	-1.545613	-1.993992	11.122378	-9.577499	153.557898	2.817488	2.824155	-4.492467	-5.322791
0.120690	-4.318904	-3.121052	92.573052	0.211814	0.793710	0.620991	-4.056376	-4.107376	-13.108990	4.684918	0.081767	20.330101	11.735242	0.000000	0.566141	2.153790	4.542461	9.436490	0.164698	12.761506	0.908558	0.000000	-0.246035	-0.557698	-1.260309	-0.456912	-0.741738	-1.339079	-0.404211	-1.355987	-1.339079	-0.281193	-1.355987	-1.102771	-0.228468	-1.137258	-1.024001	-0.140584	-0.863874	-0.945232	-1.757404	-6.308792	-7.009462	0.000000	0.000000	26.566797	1.135807	-2.942813	13.125865	-2.188261	117.347604	9.459627	3.560683	-2.779761	-2.444388	11.476527	-9.623425	149.155878	3.807517	2.814804	-4.514550	-6.074064
